<svg id="Layer_1" enable-background="new 0 0 512.003 512.003" height="512" viewBox="0 0 512.003 512.003" width="512" xmlns="http://www.w3.org/2000/svg"><g><path d="m461.954 49.996-45.389-45.347-292.686 307.068 38.198 38.156 38.445 38.389 306.828-292.926z" fill="#caf4ff"/><path d="m461.954 49.996-299.877 299.877 38.445 38.389 306.828-292.926z" fill="#b0e3ff"/><path d="m507.605 95.095c-2.814 2.814-6.626 4.391-10.607 4.398l-69.586-.007c-4.122.007-7.863-1.669-10.578-4.37l-.021-.021c-2.715-2.715-4.398-6.463-4.398-10.607l.007-69.487c-.007-3.981 1.577-7.799 4.384-10.607 2.814-2.814 6.633-4.398 10.614-4.391h69.579c4.13 0 7.863 1.669 10.578 4.37 2.729 2.715 4.419 6.47 4.419 10.628l.007 69.487c-.007 3.982-1.584 7.793-4.398 10.607z" fill="#b0e3ff"/><path d="m82.492 505.896c-2.588 3.521-6.583 5.735-10.939 6.06-4.363.332-8.648-1.251-11.738-4.341l-27.761-27.719-27.655-27.627c-.007-.007-.007-.007-.007-.007-3.097-3.097-4.681-7.382-4.349-11.745s2.546-8.358 6.074-10.953l52.008-38.191 65.04-78.857 38.142 38.127 38.382 38.353-78.949 64.962-.014.014z" fill="#ba6852"/><path d="m82.492 505.896c-2.588 3.521-6.583 5.735-10.939 6.06-4.363.332-8.648-1.251-11.738-4.341l-27.761-27.719 129.252-129.252 38.382 38.353-78.949 64.962-.014.014z" fill="#a34836"/><path d="m285.722 409.369c-23.377 23.349-61.419 23.349-84.796 0l-49.207-49.137-48.953-48.896-.028-.028c-11.315-11.314-17.538-26.347-17.538-42.342 0-16.009 6.237-31.056 17.564-42.37 5.862-5.848 15.358-5.841 21.206.007.007.007.007.007.007.007 5.855 5.869 5.848 15.365-.014 21.213-5.65 5.65-8.761 13.159-8.768 21.142 0 7.976 3.111 15.486 8.754 21.128.007.007.014.014.014.014l48.967 48.911 49.193 49.123c11.689 11.674 30.71 11.674 42.398 0 5.855-5.855 15.351-5.848 21.206.007l.007.007c5.85 5.863 5.843 15.359-.012 21.214z" fill="#ffcd40"/><path d="m71.553 511.956c-4.363.332-8.648-1.251-11.738-4.341l-27.761-27.719-27.655-27.627c-.007-.007-.007-.007-.007-.007-3.097-3.097-4.681-7.382-4.349-11.745s2.546-8.358 6.074-10.953l52.008-38.191 62.6 62.6-38.233 51.923c-2.588 3.521-6.583 5.735-10.939 6.06z" fill="#a34836"/><path d="m82.492 505.896c-2.588 3.521-6.583 5.735-10.939 6.06-4.363.332-8.648-1.251-11.738-4.341l-27.761-27.719 57.297-57.297 31.374 31.374z" fill="#912b1a"/><path d="m427.412 99.486c-4.122.007-7.863-1.669-10.578-4.37l90.743-90.743c2.729 2.715 4.419 6.47 4.419 10.628l.007 69.487c-.007 3.981-1.584 7.792-4.398 10.607-2.814 2.814-6.626 4.391-10.607 4.398z" fill="#92cdf4"/><path d="m285.722 409.369c-23.377 23.349-61.419 23.349-84.796 0l-49.207-49.137 21.213-21.213 49.193 49.123c11.689 11.674 30.71 11.674 42.398 0 5.855-5.855 15.351-5.848 21.206.007l.007.007c5.848 5.862 5.841 15.358-.014 21.213z" fill="#ffa943"/></g></svg>